<?xml version="1.0" encoding="utf-8"?>
<!-- Generator: Adobe Illustrator 27.0.1, SVG Export Plug-In . SVG Version: 6.00 Build 0)  -->
<svg version="1.1" id="Слой_1" xmlns="http://www.w3.org/2000/svg" xmlns:xlink="http://www.w3.org/1999/xlink" x="0px" y="0px"
	 viewBox="0 0 512 512" style="enable-background:new 0 0 512 512;" xml:space="preserve">
<style type="text/css">
	.st0{fill:#39556A;}
	.st1{fill:#D15241;}
	.st2{fill:#E46353;}
	.st3{fill:#64798A;}
	.st4{fill:#FFFFFF;}
	.st5{fill:#ECEFEF;}
</style>
<g>
	<path class="st0" d="M279.89,24.5c0-12.65-10.26-22.91-22.91-22.91c-12.65,0-22.91,10.26-22.91,22.91
		c0,8.98,5.21,16.66,12.73,20.42v29.05h20.36V44.93C274.68,41.17,279.89,33.48,279.89,24.5z"/>
	<path class="st0" d="M482.72,29.9c-3.63-3.63-9.5-3.63-13.13,0l-82.03,82.03l13.13,13.13l82.03-82.03
		C486.35,39.41,486.35,33.53,482.72,29.9z"/>
	<path class="st0" d="M31.24,32.22c3.63-3.63,9.5-3.62,13.13,0l82.03,82.03l-13.13,13.13L31.24,45.36
		C27.61,41.73,27.61,35.85,31.24,32.22z"/>
	<polygon class="st0" points="181.78,411.36 138.45,411.36 94.68,511.5 120.94,511.5 	"/>
	<polygon class="st0" points="332.19,411.36 375.51,411.36 419.29,511.5 393.02,511.5 	"/>
</g>
<path class="st1" d="M471.51,43.17c-30.35-30.35-78.44-32.13-110.87-5.35c-3.3,2.73-3.48,7.75-0.45,10.77L466.08,154.5
	c3.03,3.03,8.05,2.85,10.77-0.45C503.64,121.62,501.86,73.52,471.51,43.17z"/>
<path class="st2" d="M471.51,52.61c-29.63-29.63-77.68-29.63-107.31,0l101.87,101.87c3.03,3.03,8.07,2.87,10.76-0.46
	C501.02,124.22,499.25,80.35,471.51,52.61z"/>
<path class="st1" d="M42.45,43.17c30.35-30.35,78.44-32.13,110.87-5.35c3.3,2.73,3.48,7.75,0.45,10.77L47.88,154.5
	c-3.02,3.03-8.05,2.85-10.77-0.45C10.32,121.62,12.11,73.52,42.45,43.17z"/>
<path class="st2" d="M42.45,52.61c29.63-29.63,77.68-29.63,107.31,0L47.89,154.48c-3.03,3.03-8.07,2.87-10.76-0.46
	C12.94,124.22,14.71,80.35,42.45,52.61z"/>
<circle class="st3" cx="256.98" cy="277.48" r="215.11"/>
<circle class="st4" cx="256.98" cy="277.48" r="170.55"/>
<path class="st5" d="M256.98,117.23c93.99,0,170.19,76.16,170.26,170.13c0.19-3.27,0.31-6.56,0.31-9.89
	c0-94.2-76.37-170.57-170.57-170.57c-94.2,0-170.57,76.37-170.57,170.57c0,3.32,0.12,6.61,0.31,9.89
	C86.79,193.39,162.99,117.23,256.98,117.23z"/>
<path class="st2" d="M345.81,368.27c-0.99,0-1.98-0.38-2.73-1.13L230.47,254.52c-1.51-1.51-1.51-3.96,0-5.47
	c1.51-1.51,3.96-1.51,5.47,0l112.61,112.61c1.51,1.51,1.51,3.96,0,5.47C347.79,367.89,346.8,368.27,345.81,368.27z"/>
<path class="st3" d="M263.21,260.79v-91.24c0-3.2-2.6-5.8-5.8-5.8c-3.2,0-5.8,2.6-5.8,5.8v91.24c-4.36,1.54-7.92,4.71-9.94,8.82
	h-69.65c-4.27,0-7.73,3.46-7.73,7.73c0,4.28,3.46,7.73,7.73,7.73h69.65c2.88,5.83,8.82,9.88,15.75,9.88
	c9.71,0,17.61-7.9,17.61-17.61C275.03,269.67,270.07,263.2,263.21,260.79z"/>
<circle class="st4" cx="257.41" cy="277.34" r="9.88"/>
</svg>
