<?xml version="1.0" encoding="utf-8"?>
<!-- Generator: Adobe Illustrator 27.0.1, SVG Export Plug-In . SVG Version: 6.00 Build 0)  -->
<svg version="1.1" id="Слой_1" xmlns="http://www.w3.org/2000/svg" xmlns:xlink="http://www.w3.org/1999/xlink" x="0px" y="0px"
	 viewBox="0 0 512 512" style="enable-background:new 0 0 512 512;" xml:space="preserve">
<style type="text/css">
	.st0{fill:#2C78B2;}
	.st1{fill:#3B4651;}
</style>
<g>
	<g>
		<path class="st0" d="M234.44,309.11v169.15c0,17.44-14.27,31.71-31.71,31.71H33.58c-17.44,0-31.71-14.27-31.71-31.71V309.11
			c0-17.44,14.27-31.71,31.71-31.71h169.15C220.17,277.39,234.44,291.66,234.44,309.11z"/>
		<path class="st0" d="M509.31,34.24v169.15c0,17.44-14.27,31.71-31.71,31.71H308.44c-17.44,0-31.71-14.27-31.71-31.71V34.24
			c0-17.44,14.27-31.71,31.71-31.71h169.15C495.03,2.53,509.31,16.8,509.31,34.24z"/>
		<g>
			<path class="st1" d="M234.44,34.24v169.15c0,17.44-14.27,31.71-31.71,31.71H33.58c-17.44,0-31.71-14.27-31.71-31.71V34.24
				c0-17.44,14.27-31.71,31.71-31.71h169.15C220.17,2.53,234.44,16.8,234.44,34.24z"/>
			<path class="st1" d="M509.31,309.11v169.15c0,17.44-14.27,31.71-31.71,31.71H308.44c-17.44,0-31.71-14.27-31.71-31.71V309.11
				c0-17.44,14.27-31.71,31.71-31.71h169.15C495.03,277.39,509.31,291.66,509.31,309.11z"/>
		</g>
	</g>
</g>
</svg>
