<?xml version="1.0" encoding="utf-8"?>
<!-- Generator: Adobe Illustrator 27.0.1, SVG Export Plug-In . SVG Version: 6.00 Build 0)  -->
<svg version="1.1" id="Слой_1" xmlns="http://www.w3.org/2000/svg" xmlns:xlink="http://www.w3.org/1999/xlink" x="0px" y="0px"
	 viewBox="0 0 512 512" style="enable-background:new 0 0 512 512;" xml:space="preserve">
<style type="text/css">
	.st0{fill:#545C66;}
	.st1{fill:#444A54;}
	.st2{fill:#AAB2BC;}
	.st3{fill:#5999C6;}
	.st4{fill:#4786BD;}
	.st5{fill:#656D78;}
</style>
<path class="st0" d="M460.61,125.09h-32.74c-27.17,0-49.11-22.02-49.11-49.11c0-9.08-7.37-16.45-16.37-16.45v0.08H247.82
	c-9,0-16.37,7.28-16.37,16.29v0.08c0,27.09-21.93,49.11-49.11,49.11h-49.03H84.13c27.17,0,49.11,21.93,49.11,49.11v229.08
	c0,27.16-21.93,49.11-49.11,49.11v0.08h376.49c27.01,0,49.11-22.1,49.11-49.11V174.2C509.72,147.19,487.62,125.09,460.61,125.09z"/>
<path class="st1" d="M432.05,272.58c2.62,10.4,4.01,21.29,4.01,32.5c0,11.21-1.39,22.18-4.01,32.57
	c-14.57,56.56-65.8,98.39-126.94,98.39c-72.27,0-130.95-58.6-130.95-130.95c0-72.27,58.68-130.95,130.95-130.95
	C366.25,174.13,417.48,215.95,432.05,272.58z M403.32,305.08c0-54.18-43.95-98.21-98.21-98.21c-54.18,0-98.21,44.03-98.21,98.21
	c0,54.26,44.03,98.21,98.21,98.21C359.37,403.3,403.32,359.35,403.32,305.08z"/>
<path class="st2" d="M125.13,100.54c4.5,0,8.18,3.68,8.18,8.18v16.38c0,4.5-3.68,8.18-8.18,8.18H92.31c-4.5,0-11.87,0-16.37,0H59.57
	c-4.5,0-8.18-3.68-8.18-8.18v-16.38c0-4.5,3.68-8.18,8.18-8.18L125.13,100.54z"/>
<path class="st2" d="M436.06,256.04c18.09,0,32.74,14.65,32.74,32.74c0,18.09-14.65,32.74-32.74,32.74c-1.39,0-2.7-0.08-4.01-0.25
	c2.62-10.39,4.01-21.35,4.01-32.57s-1.39-22.1-4.01-32.5C433.36,256.04,434.67,256.04,436.06,256.04z"/>
<path class="st3" d="M305.11,190.48c54.26,0,98.21,44.03,98.21,98.21c0,54.26-43.95,98.21-98.21,98.21
	c-54.18,0-98.21-43.95-98.21-98.21C206.89,234.52,250.93,190.48,305.11,190.48z"/>
<path class="st4" d="M305.11,190.48c-5.6,0-11.04,0.57-16.38,1.48c46.44,7.82,81.82,48.15,81.82,96.73
	c0,48.66-35.38,88.92-81.82,96.73c5.34,0.9,10.78,1.48,16.38,1.48c54.26,0,98.21-43.95,98.21-98.21
	C403.32,234.52,359.37,190.48,305.11,190.48z"/>
<g>
	<path class="st5" d="M432.05,256.2c2.62,10.4,4.01,21.29,4.01,32.5s-1.39,22.18-4.01,32.57c-14.57,56.56-65.8,98.39-126.94,98.39
		c-72.27,0-130.95-58.6-130.95-130.95c0-72.27,58.68-130.95,130.95-130.95C366.25,157.75,417.48,199.56,432.05,256.2z M403.32,288.7
		c0-54.18-43.95-98.21-98.21-98.21c-54.18,0-98.21,44.03-98.21,98.21c0,54.26,44.03,98.21,98.21,98.21
		C359.37,386.91,403.32,342.96,403.32,288.7z"/>
	<path class="st5" d="M133.23,174.2v229.08c0,27.16-21.93,49.11-49.11,49.11v0.08H51.39c-27.01,0-49.11-22.1-49.11-49.11V174.2
		c0-27.01,22.1-49.11,49.11-49.11h32.74C111.3,125.09,133.23,147.02,133.23,174.2z"/>
	<path class="st5" d="M346.04,100.49h-81.86c-4.53,0-8.18-3.66-8.18-8.18s3.66-8.18,8.18-8.18h81.86c4.53,0,8.18,3.66,8.18,8.18
		S350.56,100.49,346.04,100.49z"/>
	<path class="st5" d="M321.48,125.05h-32.74c-4.53,0-8.18-3.66-8.18-8.18s3.66-8.18,8.18-8.18h32.74c4.53,0,8.18,3.66,8.18,8.18
		S326,125.05,321.48,125.05z"/>
</g>
</svg>
