<?xml version="1.0" encoding="utf-8"?>
<!-- Generator: Adobe Illustrator 27.0.1, SVG Export Plug-In . SVG Version: 6.00 Build 0)  -->
<svg version="1.1" id="Слой_1" xmlns="http://www.w3.org/2000/svg" xmlns:xlink="http://www.w3.org/1999/xlink" x="0px" y="0px"
	 viewBox="0 0 512 512" style="enable-background:new 0 0 512 512;" xml:space="preserve">
<style type="text/css">
	.st0{fill:url(#SVGID_1_);}
	.st1{fill:url(#SVGID_00000022540596085672526150000000025085068085637286_);}
	.st2{fill:url(#SVGID_00000074404574226827083640000004138570491063775156_);}
	.st3{fill:url(#SVGID_00000144335073914805307020000014569733780726845869_);}
	.st4{fill:url(#SVGID_00000063621337056352308480000009612136461921141397_);}
	.st5{fill:url(#SVGID_00000130607943288811029770000000851109474265293726_);}
	.st6{opacity:0.05;enable-background:new    ;}
	.st7{opacity:0.07;enable-background:new    ;}
</style>
<linearGradient id="SVGID_1_" gradientUnits="userSpaceOnUse" x1="-19.348" y1="-802.1699" x2="-6.5918" y2="-802.3482" gradientTransform="matrix(26.5792 -6.1348 6.1348 26.5792 5579.6313 21334.9219)">
	<stop  offset="0" style="stop-color:#841F8B"/>
	<stop  offset="1" style="stop-color:#621284"/>
</linearGradient>
<path class="st0" d="M29.87,96.21L430.15,3.46c19.35-4.48,38.52,7.54,42.98,26.95l10.74,46.67c4.46,19.42-7.52,38.66-26.87,43.15
	L56.73,213c-19.35,4.48-38.38-7.57-42.98-26.95l-10.8-45.5C-1.84,120.35,10.52,100.7,29.87,96.21L29.87,96.21z"/>
<linearGradient id="SVGID_00000102531723391314529860000015501086208019683762_" gradientUnits="userSpaceOnUse" x1="-12.3462" y1="-902.3087" x2="-3.2612" y2="-899.8741" gradientTransform="matrix(27.278 0 0 27.278 430.062 24793.8652)">
	<stop  offset="0" style="stop-color:#CA64AF"/>
	<stop  offset="1" style="stop-color:#C866B0"/>
</linearGradient>
<path style="fill:url(#SVGID_00000102531723391314529860000015501086208019683762_);" d="M1.91,131.8v111.52
	c0,20.35,16.32,36.74,36.6,36.74h472.23v-67.37v-6.75c0-19.89-15.33-36.06-34.83-37.31v-0.09H38.51
	C18.23,168.54,1.91,152.16,1.91,131.8L1.91,131.8z"/>
<linearGradient id="SVGID_00000039097883996893762600000007393147453371000248_" gradientUnits="userSpaceOnUse" x1="-2.6737" y1="-901.204" x2="2.4426" y2="-899.8325" gradientTransform="matrix(27.278 0 0 27.278 430.062 24793.8652)">
	<stop  offset="0" style="stop-color:#AF4AA2"/>
	<stop  offset="1" style="stop-color:#AD48A1"/>
</linearGradient>
<path style="fill:url(#SVGID_00000039097883996893762600000007393147453371000248_);" d="M336.4,168.54v111.52h174.34v-67.37v-6.75
	c0-19.89-15.33-36.06-34.83-37.31v-0.09H336.4z"/>
<linearGradient id="SVGID_00000181082944083335663110000010104881755271017606_" gradientUnits="userSpaceOnUse" x1="-8.5213" y1="-897.3053" x2="3.4361" y2="-897.3053" gradientTransform="matrix(27.278 0 0 27.278 430.062 24793.8652)">
	<stop  offset="0" style="stop-color:#AF4AA2"/>
	<stop  offset="1" style="stop-color:#AD48A1"/>
</linearGradient>
<path style="fill:url(#SVGID_00000181082944083335663110000010104881755271017606_);" d="M1.91,243.32v120.35
	c0,10.89,4.67,20.63,12.12,27.35h496.7V280.06H38.51C18.23,280.06,1.91,263.68,1.91,243.32L1.91,243.32z"/>
<linearGradient id="SVGID_00000076567656520481859270000002222594735564108730_" gradientUnits="userSpaceOnUse" x1="-14.1056" y1="-897.3053" x2="-10.1317" y2="-897.3053" gradientTransform="matrix(27.278 0 0 27.278 430.062 24793.8652)">
	<stop  offset="0" style="stop-color:#CA64AF"/>
	<stop  offset="1" style="stop-color:#C866B0"/>
</linearGradient>
<path style="fill:url(#SVGID_00000076567656520481859270000002222594735564108730_);" d="M1.91,243.32v120.35
	c0,10.89,4.67,20.63,12.12,27.35h162.52V280.06H38.51C18.23,280.06,1.91,263.68,1.91,243.32L1.91,243.32z"/>
<linearGradient id="SVGID_00000137820976061243266880000009616078355597100708_" gradientUnits="userSpaceOnUse" x1="-14.6068" y1="-893.0657" x2="-0.1435" y2="-893.0657" gradientTransform="matrix(27.278 0 0 27.278 430.062 24793.8652)">
	<stop  offset="0" style="stop-color:#841F8B"/>
	<stop  offset="1" style="stop-color:#621284"/>
</linearGradient>
<path style="fill:url(#SVGID_00000137820976061243266880000009616078355597100708_);" d="M1.91,354.29v120.35
	c0,20.34,16.32,36.72,36.6,36.72h435.63c20.28,0,36.6-16.38,36.6-36.74v-83.61H38.51C18.23,391.01,1.91,374.64,1.91,354.29
	L1.91,354.29z"/>
<path class="st6" d="M253.14,167.9l49-12.08H38.51c-13.17,0-23.88-10.77-23.88-24.02H1.91c0,20.35,16.32,36.74,36.6,36.74h216.16
	L253.14,167.9z"/>
<path class="st7" d="M253.14,167.9l23.22-5.72H38.51c-16.68,0-30.24-13.62-30.24-30.38H1.91c0,20.35,16.32,36.74,36.6,36.74h216.16
	L253.14,167.9z"/>
</svg>
