<?xml version="1.0" encoding="utf-8"?>
<!-- Generator: Adobe Illustrator 27.0.1, SVG Export Plug-In . SVG Version: 6.00 Build 0)  -->
<svg version="1.1" id="Слой_1" xmlns="http://www.w3.org/2000/svg" xmlns:xlink="http://www.w3.org/1999/xlink" x="0px" y="0px"
	 viewBox="0 0 512 512" style="enable-background:new 0 0 512 512;" xml:space="preserve">
<style type="text/css">
	.st0{fill:url(#SVGID_1_);}
	.st1{fill:url(#SVGID_00000146494259907347298630000017199898520928349118_);}
	.st2{fill:url(#SVGID_00000161594185645642009800000013409881654061492136_);}
</style>
<linearGradient id="SVGID_1_" gradientUnits="userSpaceOnUse" x1="71.7031" y1="511.7041" x2="71.7031" y2="457.0757" gradientTransform="matrix(5 0 0 -5 -4 2566)">
	<stop  offset="0" style="stop-color:#186FAF"/>
	<stop  offset="1" style="stop-color:#1767A8"/>
</linearGradient>
<path class="st0" d="M496.73,5.83H212.31c-6.83,0-12.37,5.54-12.37,12.37v173.13c0,6.83,5.54,12.37,12.37,12.37h74.2v60.27
	c0,5.13,6.21,7.7,9.84,4.08l64.35-64.35h136.03c6.83,0,12.37-5.54,12.37-12.37V18.2C509.09,11.37,503.55,5.83,496.73,5.83z"/>
<linearGradient id="SVGID_00000130609854766402414330000013551712996686889398_" gradientUnits="userSpaceOnUse" x1="18.7534" y1="482.1312" x2="41.183" y2="459.6992" gradientTransform="matrix(5 0 0 -5 -4 2566)">
	<stop  offset="0" style="stop-color:#28AACC"/>
	<stop  offset="1" style="stop-color:#229DC6"/>
</linearGradient>
<circle style="fill:url(#SVGID_00000130609854766402414330000013551712996686889398_);" cx="144.29" cy="209.88" r="80.38"/>
<linearGradient id="SVGID_00000056423235699001510860000009384447086230609292_" gradientUnits="userSpaceOnUse" x1="10.5466" y1="442.541" x2="48.649" y2="404.4387" gradientTransform="matrix(5 0 0 -5 -4 2566)">
	<stop  offset="0" style="stop-color:#28AACC"/>
	<stop  offset="1" style="stop-color:#229DC6"/>
</linearGradient>
<path style="fill:url(#SVGID_00000056423235699001510860000009384447086230609292_);" d="M286.5,457.2
	c0-79.43-65.12-143.64-144.87-142.19C63.34,316.45,2.08,383.61,2.08,461.91v32.39c0,6.83,5.54,12.37,12.37,12.37h259.69
	c6.83,0,12.37-5.54,12.37-12.37V457.2z"/>
</svg>
