<?xml version="1.0" encoding="utf-8"?>
<!-- Generator: Adobe Illustrator 27.0.1, SVG Export Plug-In . SVG Version: 6.00 Build 0)  -->
<svg version="1.1" id="Слой_1" xmlns="http://www.w3.org/2000/svg" xmlns:xlink="http://www.w3.org/1999/xlink" x="0px" y="0px"
	 viewBox="0 0 512 512" style="enable-background:new 0 0 512 512;" xml:space="preserve">
<style type="text/css">
	.st0{fill:url(#SVGID_1_);}
	.st1{fill:url(#SVGID_00000116211404011362075830000001334375450056510635_);}
	.st2{fill:#FFFFFF;}
</style>
<linearGradient id="SVGID_1_" gradientUnits="userSpaceOnUse" x1="18.2825" y1="505.7299" x2="46.5845" y2="445.7776" gradientTransform="matrix(5 0 0 -5 -4 2566)">
	<stop  offset="0" style="stop-color:#29AACC"/>
	<stop  offset="1" style="stop-color:#26A0C8"/>
</linearGradient>
<path class="st0" d="M189.53,2.12C99.98,2.12,27.4,74.7,27.4,164.25c0,24.73,5.69,48.06,15.6,69.03c-0.16,0.36-0.35,0.65-0.48,1.06
	L4.48,320.88c-4.71,10.71,6.62,21.41,17.04,16.1l76.49-38.95c26.05,17.86,57.54,28.34,91.51,28.34
	c89.54,0,162.13-72.59,162.13-162.13S279.07,2.12,189.53,2.12z"/>
<linearGradient id="SVGID_00000018932885772828114310000002825911173037929371_" gradientUnits="userSpaceOnUse" x1="44.9594" y1="481.4901" x2="88.0574" y2="408.8027" gradientTransform="matrix(5 0 0 -5 -4 2566)">
	<stop  offset="0" style="stop-color:#1B73B2"/>
	<stop  offset="1" style="stop-color:#1D548C"/>
</linearGradient>
<path style="fill:url(#SVGID_00000018932885772828114310000002825911173037929371_);" d="M506.69,491.26l-43.92-99.92
	c13.39-24.67,20.99-52.94,20.99-82.97c0-96.17-77.97-174.14-174.14-174.14s-174.14,77.97-174.14,174.14S213.45,482.5,309.62,482.5
	c31.38,0,60.74-8.42,86.17-22.94l93.86,47.79C500.07,512.66,511.4,501.96,506.69,491.26z"/>
<path class="st2" d="M293.6,347.38c-0.79-2.07-2.5-8.19-2.5-14.26c0-34.52,35.54-35.84,35.54-61.44c0-16.12-15.92-17.11-18.77-17.11
	c-18.09,0-32.21,10.34-38.14,15.56v-35.78c6.1-3.64,20.06-10.93,42.31-10.93c51.52,0,52.17,35.42,52.17,43.02
	c0,40.88-42.19,43.92-42.19,70.11c0,5.46,1.98,9.46,2.85,10.81H293.6V347.38z M310.95,403.58c-9.81,0-20.18-6.12-20.18-18
	c0-11.89,10.77-17.79,20.18-17.79c9.4,0,19.85,5.27,19.85,17.79S320.76,403.58,310.95,403.58z"/>
</svg>
