<?xml version="1.0" encoding="utf-8"?>
<!-- Generator: Adobe Illustrator 27.0.1, SVG Export Plug-In . SVG Version: 6.00 Build 0)  -->
<svg version="1.1" id="Слой_1" xmlns="http://www.w3.org/2000/svg" xmlns:xlink="http://www.w3.org/1999/xlink" x="0px" y="0px"
	 viewBox="0 0 512 512" style="enable-background:new 0 0 512 512;" xml:space="preserve">
<style type="text/css">
	.st0{fill:url(#SVGID_1_);}
	.st1{fill:url(#SVGID_00000068641720016917897270000018235191801154800534_);}
	.st2{fill:#DE490D;}
	.st3{opacity:0.05;enable-background:new    ;}
	.st4{opacity:0.07;enable-background:new    ;}
	.st5{fill:url(#SVGID_00000074428194327448583630000011148152776196350389_);}
	.st6{fill:url(#SVGID_00000168827522680183519320000008451636210338285994_);}
</style>
<linearGradient id="SVGID_1_" gradientUnits="userSpaceOnUse" x1="7.9423" y1="416.7539" x2="95.8924" y2="416.7539" gradientTransform="matrix(5 0 0 -5 -4 2566)">
	<stop  offset="0" style="stop-color:#C8D3D8"/>
	<stop  offset="1" style="stop-color:#C8D3D8"/>
</linearGradient>
<path class="st0" d="M475.46,457.8H35.71v24.43c0,13.5,10.93,24.43,24.43,24.43h390.89c13.5,0,24.43-10.93,24.43-24.43V457.8z"/>
<linearGradient id="SVGID_00000152225920537905964510000007892539068806801024_" gradientUnits="userSpaceOnUse" x1="27.719" y1="491.6629" x2="69.9594" y2="409.9451" gradientTransform="matrix(5 0 0 -5 -4 2566)">
	<stop  offset="0" style="stop-color:#FCFCFC"/>
	<stop  offset="0.495" style="stop-color:#F4F4F4"/>
	<stop  offset="0.946" style="stop-color:#E8E8E8"/>
	<stop  offset="1" style="stop-color:#E8E8E8"/>
</linearGradient>
<path style="fill:url(#SVGID_00000152225920537905964510000007892539068806801024_);" d="M475.46,457.8H35.71V225.71L255.59,18.05
	l219.88,207.66V457.8z"/>
<path class="st2" d="M121.22,286.79h122.15c6.74,0,12.22,5.47,12.22,12.22v207.66H109V299C109,292.26,114.48,286.79,121.22,286.79z"
	/>
<path class="st3" d="M255.59,30.27c-5.79,0-11.58,2.05-16.2,6.14l-65.46,58.77L35.71,225.71v65.84L255.59,96.57l219.88,194.98
	v-65.84L337.25,95.18l-65.46-58.77C267.17,32.32,261.38,30.27,255.59,30.27z"/>
<path class="st4" d="M255.59,18.05c-5.79,0-11.58,2.04-16.2,6.11L173.93,82.6L35.71,212.38v65.46L255.59,83.98l219.88,193.87v-65.46
	L337.25,82.6l-65.46-58.44C267.17,20.09,261.38,18.05,255.59,18.05z"/>
<linearGradient id="SVGID_00000055687550578549868660000008139587677814948233_" gradientUnits="userSpaceOnUse" x1="51.9174" y1="512.8051" x2="51.9174" y2="459.0285" gradientTransform="matrix(5 0 0 -5 -4 2566)">
	<stop  offset="0" style="stop-color:#D4390A"/>
	<stop  offset="1" style="stop-color:#B93610"/>
</linearGradient>
<path style="fill:url(#SVGID_00000055687550578549868660000008139587677814948233_);" d="M505.94,219.69L271.78,11.98
	c-4.62-4.09-10.41-6.14-16.2-6.14s-11.58,2.05-16.2,6.14L5.23,219.69c-5.13,4.57-5.48,12.46-0.78,17.47l19.98,21.32
	c4.51,4.81,12.02,5.18,16.98,0.82L255.59,72.14L469.76,259.3c4.95,4.35,12.47,3.99,16.98-0.82l19.98-21.32
	C511.42,232.15,511.07,224.26,505.94,219.69z"/>
<linearGradient id="SVGID_00000054962100293982689700000013870496242819151762_" gradientUnits="userSpaceOnUse" x1="61.8117" y1="455.7206" x2="80.291" y2="437.2414" gradientTransform="matrix(5 0 0 -5 -4 2566)">
	<stop  offset="0" style="stop-color:#29AACC"/>
	<stop  offset="1" style="stop-color:#1D82B9"/>
</linearGradient>
<path style="fill:url(#SVGID_00000054962100293982689700000013870496242819151762_);" d="M316.66,286.79h73.29
	c6.74,0,12.22,5.47,12.22,12.22v73.29c0,6.74-5.47,12.22-12.22,12.22h-73.29c-6.74,0-12.22-5.47-12.22-12.22V299
	C304.45,292.26,309.92,286.79,316.66,286.79z"/>
</svg>
