<?xml version="1.0" encoding="utf-8"?>
<!-- Generator: Adobe Illustrator 27.0.1, SVG Export Plug-In . SVG Version: 6.00 Build 0)  -->
<svg version="1.1" id="Слой_1" xmlns="http://www.w3.org/2000/svg" xmlns:xlink="http://www.w3.org/1999/xlink" x="0px" y="0px"
	 viewBox="0 0 512 512" style="enable-background:new 0 0 512 512;" xml:space="preserve">
<style type="text/css">
	.st0{fill:url(#SVGID_1_);}
	.st1{fill:url(#SVGID_00000127034136514865710810000013012484986968139168_);}
	.st2{fill:#FFFFFF;}
	.st3{fill:#F5B6BB;}
	.st4{fill:#F17D86;}
</style>
<linearGradient id="SVGID_1_" gradientUnits="userSpaceOnUse" x1="93.1061" y1="457.1098" x2="103.1698" y2="457.1098" gradientTransform="matrix(5 0 0 -5 -4 2566)">
	<stop  offset="0" style="stop-color:#891114"/>
	<stop  offset="0.761" style="stop-color:#951F26"/>
	<stop  offset="1" style="stop-color:#9A262D"/>
</linearGradient>
<path class="st0" d="M485.52,98.93h-36.3v363.05h36.3c13.37,0,24.2-10.83,24.2-24.2V123.13C509.72,109.76,498.89,98.93,485.52,98.93
	z"/>
<linearGradient id="SVGID_00000070838552536300625000000013180894436792954550_" gradientUnits="userSpaceOnUse" x1="49.497" y1="502.6745" x2="49.497" y2="418.7915" gradientTransform="matrix(5 0 0 -5 -4 2566)">
	<stop  offset="0" style="stop-color:#F04E5A"/>
	<stop  offset="0.443" style="stop-color:#EC3D4A"/>
	<stop  offset="1" style="stop-color:#E42030"/>
</linearGradient>
<path style="fill:url(#SVGID_00000070838552536300625000000013180894436792954550_);" d="M461.31,437.77V74.72
	c0-13.37-10.83-24.2-24.2-24.2H25.66c-13.37,0-24.2,10.83-24.2,24.2v363.05c0,13.37,10.83,24.2,24.2,24.2h459.86
	C472.14,461.97,461.31,451.14,461.31,437.77z"/>
<path class="st2" d="M412.91,171.54H49.86c-6.68,0-12.1-5.42-12.1-12.1v-24.2c0-6.68,5.42-12.1,12.1-12.1h363.05
	c6.68,0,12.1,5.42,12.1,12.1v24.2C425.01,166.12,419.59,171.54,412.91,171.54z"/>
<path class="st2" d="M195.08,389.36H49.86c-6.68,0-12.1-5.42-12.1-12.1V232.04c0-6.68,5.42-12.1,12.1-12.1h145.22
	c6.68,0,12.1,5.42,12.1,12.1v145.22C207.18,383.94,201.76,389.36,195.08,389.36z"/>
<path class="st2" d="M425.01,256.25H255.59v-24.2c0-6.68,5.42-12.1,12.1-12.1h145.22c6.68,0,12.1,5.42,12.1,12.1V256.25z"/>
<rect x="255.59" y="256.25" class="st3" width="169.42" height="36.3"/>
<path class="st4" d="M412.91,328.86H267.69c-6.68,0-12.1-5.42-12.1-12.1v-24.2h169.42v24.2
	C425.01,323.44,419.59,328.86,412.91,328.86z"/>
</svg>
