<?xml version="1.0" encoding="utf-8"?>
<!-- Generator: Adobe Illustrator 27.0.1, SVG Export Plug-In . SVG Version: 6.00 Build 0)  -->
<svg version="1.1" id="Слой_1" xmlns="http://www.w3.org/2000/svg" xmlns:xlink="http://www.w3.org/1999/xlink" x="0px" y="0px"
	 viewBox="0 0 512 512" style="enable-background:new 0 0 512 512;" xml:space="preserve">
<style type="text/css">
	.st0{fill:#143362;}
	.st1{fill:#1C81B8;}
	.st2{fill:#32A8CC;}
	.st3{fill:#55BFD8;}
	.st4{fill:#1C77B4;}
	.st5{fill:#1754A0;}
	.st6{fill:#259EC7;}
	.st7{fill:#1061A9;}
	.st8{opacity:0.019;enable-background:new    ;}
	.st9{opacity:0.038;enable-background:new    ;}
	.st10{opacity:0.057;enable-background:new    ;}
	.st11{opacity:0.076;enable-background:new    ;}
	.st12{opacity:0.095;enable-background:new    ;}
	.st13{opacity:0.114;enable-background:new    ;}
	.st14{opacity:0.133;enable-background:new    ;}
	.st15{opacity:0.152;enable-background:new    ;}
	.st16{opacity:0.171;enable-background:new    ;}
	.st17{opacity:0.191;enable-background:new    ;}
	.st18{opacity:0.209;enable-background:new    ;}
	.st19{opacity:0.229;enable-background:new    ;}
	.st20{opacity:0.248;enable-background:new    ;}
	.st21{opacity:0.267;enable-background:new    ;}
	.st22{opacity:0.286;enable-background:new    ;}
	.st23{opacity:0.305;enable-background:new    ;}
	.st24{opacity:0.324;enable-background:new    ;}
	.st25{opacity:0.343;enable-background:new    ;}
	.st26{opacity:0.362;enable-background:new    ;}
	.st27{opacity:0.381;enable-background:new    ;}
	.st28{opacity:0.4;enable-background:new    ;}
	.st29{fill:url(#SVGID_1_);}
	.st30{fill:url(#SVGID_00000055665455110406728020000007633920397261131159_);}
	.st31{fill:url(#SVGID_00000023282928033925467760000011056087693896717719_);}
	.st32{opacity:0.05;enable-background:new    ;}
	.st33{opacity:0.07;enable-background:new    ;}
	.st34{opacity:0.09;enable-background:new    ;}
	.st35{fill:url(#SVGID_00000172435583803897171040000015415976982039010949_);}
	.st36{fill:#FFFFFF;}
</style>
<path class="st0" d="M500.44,250.39l-84.27-49.09v143.48h93.49v-78.35C509.66,259.82,506.15,253.72,500.44,250.39z"/>
<path class="st1" d="M126.03,82.75h123.75v111.38H126.03V82.75z"/>
<path class="st2" d="M249.78,82.75h123.75v111.38H249.78V82.75z"/>
<path class="st3" d="M373.53,82.75h123.75v111.38H373.53V82.75z"/>
<path class="st4" d="M249.78,194.12h123.75V305.5H249.78V194.12z"/>
<path class="st5" d="M249.78,305.5h123.75v111.38H249.78V305.5z"/>
<path class="st6" d="M373.53,194.12h123.75V305.5H373.53V194.12z"/>
<path class="st7" d="M373.53,305.5h123.75v111.38H373.53V305.5z"/>
<polygon class="st8" points="126.03,416.88 497.29,416.88 497.29,258.95 323.91,357.95 126.03,258.95 "/>
<polygon class="st9" points="126.03,416.88 497.29,416.88 497.29,261.89 323.91,360.89 126.03,261.89 "/>
<polygon class="st10" points="126.03,416.88 497.29,416.88 497.29,264.84 323.91,363.84 126.03,264.84 "/>
<polygon class="st11" points="126.03,416.88 497.29,416.88 497.29,267.78 323.91,366.78 126.03,267.78 "/>
<polygon class="st12" points="126.03,416.88 497.29,416.88 497.29,270.73 323.91,369.73 126.03,270.73 "/>
<polygon class="st13" points="126.03,416.88 497.29,416.88 497.29,273.68 323.91,372.68 126.03,273.68 "/>
<polygon class="st14" points="126.03,416.88 497.29,416.88 497.29,276.63 323.91,375.63 126.03,276.63 "/>
<polygon class="st15" points="126.03,416.88 497.29,416.88 497.29,279.57 323.91,378.58 126.03,279.57 "/>
<polygon class="st16" points="126.03,416.88 497.29,416.88 497.29,282.52 323.91,381.52 126.03,282.52 "/>
<polygon class="st17" points="126.03,416.88 497.29,416.88 497.29,285.47 323.91,384.47 126.03,285.47 "/>
<polygon class="st18" points="126.03,416.88 497.29,416.88 497.29,288.41 323.91,387.41 126.03,288.41 "/>
<polygon class="st19" points="126.03,416.88 497.29,416.88 497.29,291.36 323.91,390.36 126.03,291.36 "/>
<polygon class="st20" points="126.03,416.88 497.29,416.88 497.29,294.3 323.91,393.3 126.03,294.3 "/>
<polygon class="st21" points="126.03,416.88 497.29,416.88 497.29,297.25 323.91,396.25 126.03,297.25 "/>
<polygon class="st22" points="126.03,416.88 497.29,416.88 497.29,300.19 323.91,399.19 126.03,300.19 "/>
<polygon class="st23" points="126.03,416.88 497.29,416.88 497.29,303.15 323.91,402.15 126.03,303.15 "/>
<polygon class="st24" points="126.03,416.88 497.29,416.88 497.29,306.09 323.91,405.1 126.03,306.09 "/>
<polygon class="st25" points="126.03,416.88 497.29,416.88 497.29,309.04 323.91,408.04 126.03,309.04 "/>
<polygon class="st26" points="126.03,416.88 497.29,416.88 497.29,311.98 323.91,410.99 126.03,311.98 "/>
<polygon class="st27" points="126.03,416.88 497.29,416.88 497.29,314.93 323.91,413.93 126.03,314.93 "/>
<polygon class="st28" points="126.03,416.88 497.29,416.88 497.29,317.88 323.91,416.88 126.03,317.88 "/>
<linearGradient id="SVGID_1_" gradientUnits="userSpaceOnUse" x1="90.1714" y1="460.6213" x2="73.7398" y2="432.2403" gradientTransform="matrix(5 0 0 -5 -4 2566)">
	<stop  offset="0" style="stop-color:#30A6CB"/>
	<stop  offset="1" style="stop-color:#207FB7"/>
</linearGradient>
<path class="st29" d="M156.24,478.75h328.72c13.66,0,24.74-11,24.75-24.68c0.04-55.95-0.05-187.64-0.05-187.64s-0.09,2.75-21.67,15
	c-21.58,12.25-340.38,191.95-340.38,191.95S150.51,478.75,156.24,478.75z"/>
<linearGradient id="SVGID_00000103255422424141637400000009693083743948241598_" gradientUnits="userSpaceOnUse" x1="27.6523" y1="504.0954" x2="96.0124" y2="498.9424" gradientTransform="matrix(5 0 0 -5 -4 2566)">
	<stop  offset="0.042" style="stop-color:#196DA9"/>
	<stop  offset="0.85" style="stop-color:#1561A5"/>
</linearGradient>
<path style="fill:url(#SVGID_00000103255422424141637400000009693083743948241598_);" d="M497.29,82.75H126.03V58
	c0-13.67,11.08-24.75,24.75-24.75h321.75c13.67,0,24.75,11.08,24.75,24.75V82.75z"/>
<linearGradient id="SVGID_00000127019609634070432660000011586955139389302205_" gradientUnits="userSpaceOnUse" x1="63.5091" y1="439.186" x2="52.3344" y2="419.6779" gradientTransform="matrix(5 0 0 -5 -4 2566)">
	<stop  offset="0" style="stop-color:#32A7CB"/>
	<stop  offset="1" style="stop-color:#218BBD"/>
</linearGradient>
<path style="fill:url(#SVGID_00000127019609634070432660000011586955139389302205_);" d="M126.03,268.38V454
	c0,13.67,11.08,24.75,24.75,24.75h185.63h148.55c5.72,0,10.93-2,15.11-5.26L126.03,268.38z"/>
<path class="st32" d="M228.98,119.87H126.03v297h102.95c25.16,0,45.55-20.39,45.55-45.55v-205.9
	C274.53,140.27,254.14,119.87,228.98,119.87z"/>
<path class="st33" d="M227.67,404.5H126.03V123.99h101.64c21.33,0,38.62,17.29,38.62,38.62v203.26
	C266.28,387.21,248.99,404.5,227.67,404.5z"/>
<path class="st34" d="M226.34,392.13H126.03v-264h100.31c17.5,0,31.68,14.18,31.68,31.68v200.64
	C258.04,377.94,243.84,392.13,226.34,392.13z"/>
<linearGradient id="SVGID_00000031200480731548066170000010424760778491943589_" gradientUnits="userSpaceOnUse" x1="2.568" y1="485.4384" x2="49.2964" y2="438.7101" gradientTransform="matrix(5 0 0 -5 -4 2566)">
	<stop  offset="0" style="stop-color:#2181B8"/>
	<stop  offset="1" style="stop-color:#1862AA"/>
</linearGradient>
<path style="fill:url(#SVGID_00000031200480731548066170000010424760778491943589_);" d="M225.03,379.75h-198
	c-13.67,0-24.75-11.08-24.75-24.75V157c0-13.67,11.08-24.75,24.75-24.75h198c13.67,0,24.75,11.08,24.75,24.75v198
	C249.78,368.68,238.71,379.75,225.03,379.75z"/>
<path class="st36" d="M126.03,190.3c-38.5,0-61.69,29.42-61.69,65.7s23.1,65.7,61.69,65.7c38.6,0,61.69-29.42,61.69-65.69
	C187.72,219.72,164.53,190.3,126.03,190.3z M126.03,299.52c-21.84,0-34.9-19.48-34.9-43.51s13.12-43.51,34.9-43.51
	s34.91,19.49,34.91,43.51S147.86,299.52,126.03,299.52z"/>
</svg>
