<?xml version="1.0" encoding="utf-8"?>
<!-- Generator: Adobe Illustrator 27.0.1, SVG Export Plug-In . SVG Version: 6.00 Build 0)  -->
<svg version="1.1" id="Слой_1" xmlns="http://www.w3.org/2000/svg" xmlns:xlink="http://www.w3.org/1999/xlink" x="0px" y="0px"
	 viewBox="0 0 512 512" style="enable-background:new 0 0 512 512;" xml:space="preserve">
<style type="text/css">
	.st0{fill:url(#SVGID_1_);}
	.st1{opacity:0.05;enable-background:new    ;}
	.st2{opacity:0.07;enable-background:new    ;}
	.st3{opacity:0.15;fill:url(#SVGID_00000121967600430755914880000007660169403653390484_);enable-background:new    ;}
	.st4{opacity:0.15;fill:url(#SVGID_00000028304595160584986740000016891087859485906099_);enable-background:new    ;}
	.st5{fill:url(#SVGID_00000054252594599011128810000000461044130155455128_);}
	.st6{opacity:0.15;fill:url(#SVGID_00000000921682024025971740000007965833935531925899_);enable-background:new    ;}
	.st7{fill:url(#SVGID_00000102544882277388305650000015826574848627676344_);}
	.st8{fill:url(#SVGID_00000164496910311730268910000004614213194459557037_);}
	.st9{fill:url(#SVGID_00000011016396592422944520000008175772312798623143_);}
	.st10{fill:url(#SVGID_00000053539793221945565140000016824306907332809613_);}
	.st11{fill:#F6F6F6;}
</style>
<linearGradient id="SVGID_1_" gradientUnits="userSpaceOnUse" x1="93.3" y1="418.8107" x2="429.5984" y2="123.6676" gradientTransform="matrix(1 0 0 -1 0 514)">
	<stop  offset="0" style="stop-color:#32B0CF"/>
	<stop  offset="0.2435" style="stop-color:#2DADCD"/>
	<stop  offset="0.5836" style="stop-color:#2AA6CB"/>
	<stop  offset="0.9792" style="stop-color:#1D90C0"/>
	<stop  offset="1" style="stop-color:#1D8EBF"/>
</linearGradient>
<path class="st0" d="M304.73,0.17c-194.92,0-292.37,177.36-292.37,292.37c0,99.68,36.55,121.82,63.71,121.82
	c52.38,0,77.17-85.28,119.02-85.28c18.68,0,36.55,13.11,36.55,36.55c0,32.54-36.55,33.54-36.55,77.83
	c0,16.21,16.69,43.99,52.77,43.99c103.06,0,251.78-121.82,251.78-286.28C499.65,50.67,390,0.17,304.73,0.17z M274.27,304.73
	c-16.82,0-30.46-13.63-30.46-30.46s13.63-30.46,30.46-30.46s30.46,13.63,30.46,30.46S291.1,304.73,274.27,304.73z"/>
<path class="st1" d="M431.78,384.34L438.73,256v-33.39l28.12-50.69c4.4-7.96,4.29-17.4-0.33-25.23
	c-4.63-7.83-12.82-12.51-21.92-12.51h-97.03c-9.09,0-17.29,4.68-21.9,12.51c-4.62,7.83-4.74,17.26-0.33,25.23l28.12,50.69
	l0.02,34.05l10.29,189.9C388.19,430.07,411.53,409.06,431.78,384.34z"/>
<path class="st2" d="M336.63,146.53c-7.36,3.92-10.6,14.05-5.96,22.44l28.87,52.05l0.01,35.3l10.09,186.05
	c19.78-13.9,38.74-30.93,55.64-50.59L432.64,256v-34.98l28.87-52.07c4.64-8.39,1.4-18.53-5.96-22.44
	c-2.3-3.92-14.97-6.26-19.52-6.26H356.2C351.66,140.27,338.94,142.61,336.63,146.53z"/>
<radialGradient id="SVGID_00000098219462087640786820000004368978145089961384_" cx="152.4509" cy="349.3669" r="54.8201" gradientTransform="matrix(1 0 0 -1 0 514)" gradientUnits="userSpaceOnUse">
	<stop  offset="0" style="stop-color:#000000"/>
	<stop  offset="1" style="stop-color:#000000;stop-opacity:0"/>
</radialGradient>
<circle style="opacity:0.15;fill:url(#SVGID_00000098219462087640786820000004368978145089961384_);enable-background:new    ;" cx="152.45" cy="164.63" r="54.82"/>
<radialGradient id="SVGID_00000128448890236178652300000015912682458622636970_" cx="91.5396" cy="239.7266" r="54.8201" gradientTransform="matrix(1 0 0 -1 0 514)" gradientUnits="userSpaceOnUse">
	<stop  offset="0" style="stop-color:#000000"/>
	<stop  offset="1" style="stop-color:#000000;stop-opacity:0"/>
</radialGradient>
<circle style="opacity:0.15;fill:url(#SVGID_00000128448890236178652300000015912682458622636970_);enable-background:new    ;" cx="91.54" cy="274.27" r="54.82"/>
<radialGradient id="SVGID_00000062174174269779137580000018183697530997441193_" cx="128.2057" cy="395.3975" r="83.7286" gradientTransform="matrix(1 0 0 -1 0 514)" gradientUnits="userSpaceOnUse">
	<stop  offset="0" style="stop-color:#E75182"/>
	<stop  offset="1" style="stop-color:#CF3667"/>
</radialGradient>
<circle style="fill:url(#SVGID_00000062174174269779137580000018183697530997441193_);" cx="152.45" cy="152.45" r="42.64"/>
<radialGradient id="SVGID_00000035533200864066263410000010337296044025772696_" cx="262.0911" cy="410.2781" r="54.8201" gradientTransform="matrix(1 0 0 -1 0 514)" gradientUnits="userSpaceOnUse">
	<stop  offset="0" style="stop-color:#000000"/>
	<stop  offset="1" style="stop-color:#000000;stop-opacity:0"/>
</radialGradient>
<circle style="opacity:0.15;fill:url(#SVGID_00000035533200864066263410000010337296044025772696_);enable-background:new    ;" cx="262.09" cy="103.72" r="54.82"/>
<radialGradient id="SVGID_00000005228933126499279730000017510766542429033877_" cx="240.3434" cy="454.6337" r="82.3337" gradientTransform="matrix(1 0 0 -1 0 514)" gradientUnits="userSpaceOnUse">
	<stop  offset="0" style="stop-color:#825EAA"/>
	<stop  offset="1" style="stop-color:#624793"/>
</radialGradient>
<circle style="fill:url(#SVGID_00000005228933126499279730000017510766542429033877_);" cx="262.09" cy="91.54" r="42.64"/>
<radialGradient id="SVGID_00000103944924774620437550000013320193436803650989_" cx="66.6817" cy="287.9013" r="82.2948" gradientTransform="matrix(1 0 0 -1 0 514)" gradientUnits="userSpaceOnUse">
	<stop  offset="0" style="stop-color:#F6E116"/>
	<stop  offset="1" style="stop-color:#F4A514"/>
</radialGradient>
<circle style="fill:url(#SVGID_00000103944924774620437550000013320193436803650989_);" cx="91.54" cy="262.09" r="42.64"/>
<linearGradient id="SVGID_00000061430013883392367040000016788806160786720919_" gradientUnits="userSpaceOnUse" x1="365.6403" y1="276.2734" x2="426.5515" y2="276.2734" gradientTransform="matrix(1 0 0 -1 0 514)">
	<stop  offset="0" style="stop-color:#B0B0B0"/>
	<stop  offset="1" style="stop-color:#A1A1A1"/>
</linearGradient>
<rect x="365.64" y="219.45" style="fill:url(#SVGID_00000061430013883392367040000016788806160786720919_);" width="60.91" height="36.55"/>
<linearGradient id="SVGID_00000096755515742162800750000000532706842756338087_" gradientUnits="userSpaceOnUse" x1="396.0959" y1="6.5023" x2="396.0959" y2="255.8596" gradientTransform="matrix(1 0 0 -1 0 514)">
	<stop  offset="0" style="stop-color:#4A4A4A"/>
	<stop  offset="0.6593" style="stop-color:#323232"/>
	<stop  offset="1" style="stop-color:#232323"/>
</linearGradient>
<path style="fill:url(#SVGID_00000096755515742162800750000000532706842756338087_);" d="M396.1,511.83L396.1,511.83
	c-9.3,0-16.97-7.27-17.48-16.56L365.64,256h60.91l-12.97,239.27C413.07,504.55,405.39,511.83,396.1,511.83z"/>
<path class="st11" d="M426.55,219.45h-60.91L336,166.02c-4.89-8.83,1.5-19.66,11.59-19.66h97.03c10.09,0,16.47,10.83,11.57,19.66
	L426.55,219.45z"/>
</svg>
