<?xml version="1.0" encoding="utf-8"?>
<!-- Generator: Adobe Illustrator 27.0.1, SVG Export Plug-In . SVG Version: 6.00 Build 0)  -->
<svg version="1.1" id="Слой_1" xmlns="http://www.w3.org/2000/svg" xmlns:xlink="http://www.w3.org/1999/xlink" x="0px" y="0px"
	 viewBox="0 0 512 512" style="enable-background:new 0 0 512 512;" xml:space="preserve">
<style type="text/css">
	.st0{fill:#E0E0E0;}
	.st1{fill:#EEEEEE;}
	.st2{fill:#3A81B8;}
	.st3{fill:#559FC7;}
	.st4{fill:#8FA4AE;}
	.st5{fill:#B0BEC4;}
</style>
<g id="Layer_29">
	<path class="st0" d="M325.22,354.8l-25.86,71.27c-1.46,4.03-5.28,6.72-9.57,6.72h-68.42c-4.29,0-8.11-2.69-9.57-6.72l-25.86-71.27
		c-1.91-5.29,0.82-11.12,6.11-13.03c1.18-0.4,2.42-0.61,3.67-0.61h123.39l-0.2,0.61h0.2C324.4,343.68,327.13,349.51,325.22,354.8z"
		/>
	<path class="st1" d="M325.22,354.8l-25.86,71.27c-1.46,4.03-5.28,6.72-9.57,6.72h-48.05c-4.29,0-8.11-2.69-9.57-6.72l-25.86-71.27
		c-1.91-5.29,0.82-11.12,6.11-13.03c1.18-0.4,2.42-0.61,3.67-0.61h103.03l-0.2,0.61h0.2C324.4,343.68,327.13,349.51,325.22,354.8z"
		/>
	<path class="st2" d="M508.48,72.99v257.98c-0.12,16.82-13.73,30.42-30.54,30.54H33.24c-16.82-0.12-30.42-13.73-30.54-30.54V72.99
		c0-16.87,13.67-30.54,30.54-30.54h444.7C494.8,42.45,508.48,56.12,508.48,72.99z"/>
	<path class="st3" d="M508.48,72.99v257.98c-0.12,16.82-13.73,30.42-30.54,30.54H53.6c-16.82-0.12-30.42-13.73-30.54-30.54V72.99
		c0-16.87,13.67-30.54,30.54-30.54h424.34C494.8,42.45,508.48,56.12,508.48,72.99z"/>
	<path class="st4" d="M399.95,459.87c0,5.62-4.56,10.18-10.18,10.18H121.4c-5.62,0-10.18-4.56-10.18-10.18
		c0.04-26.25,21.36-47.49,47.61-47.44c0.01,0,0.03,0,0.04,0H352.3c26.25-0.07,47.58,21.16,47.65,47.4
		C399.95,459.84,399.95,459.85,399.95,459.87z"/>
	<path class="st5" d="M399.95,459.87c0,5.62-4.56,10.18-10.18,10.18H141.76c-5.62,0-10.18-4.56-10.18-10.18
		c0.04-26.25,21.36-47.49,47.61-47.44c0.01,0,0.03,0,0.04,0H352.3c26.25-0.07,47.58,21.16,47.65,47.4
		C399.95,459.84,399.95,459.85,399.95,459.87z"/>
</g>
</svg>
