<?xml version="1.0" encoding="utf-8"?>
<!-- Generator: Adobe Illustrator 27.0.1, SVG Export Plug-In . SVG Version: 6.00 Build 0)  -->
<svg version="1.1" id="Слой_1" xmlns="http://www.w3.org/2000/svg" xmlns:xlink="http://www.w3.org/1999/xlink" x="0px" y="0px"
	 viewBox="0 0 512 512" style="enable-background:new 0 0 512 512;" xml:space="preserve">
<style type="text/css">
	.st0{fill:url(#SVGID_1_);}
	.st1{opacity:0.05;enable-background:new    ;}
	.st2{opacity:0.07;enable-background:new    ;}
	.st3{fill:url(#SVGID_00000166638712879892284710000000711900606609729935_);}
	.st4{fill:url(#SVGID_00000083792537616950412380000002541346906354383237_);}
</style>
<linearGradient id="SVGID_1_" gradientUnits="userSpaceOnUse" x1="-790.6682" y1="411.5454" x2="-716.2319" y2="337.1094" gradientTransform="matrix(4.8343 -1.2765 -1.2765 -4.8343 4270.0034 1087.4042)">
	<stop  offset="0" style="stop-color:#1961A2"/>
	<stop  offset="1" style="stop-color:#1D538C"/>
</linearGradient>
<path class="st0" d="M344.82,414l-227.99,60.37c-13.27,3.43-26.76-4.5-30.4-17.77L0.8,132.49c-3.43-13.27,4.5-26.76,17.77-30.4
	l227.99-60.16c13.27-3.43,26.76,4.5,30.4,17.77l85.63,324.11C366.01,397.09,358.09,410.58,344.82,414z"/>
<path class="st1" d="M276.95,59.71c-3.43-13.27-17.13-21.19-30.4-17.77L82.57,85.18v314.9c0,27.4,22.26,49.67,49.67,49.67h77.07
	L344.82,414c13.27-3.43,21.19-17.13,17.77-30.4L276.95,59.71z"/>
<path class="st2" d="M276.95,59.71c-3.43-13.27-17.13-21.19-30.4-17.77L94.99,81.97V400.3c0,20.55,16.7,37.25,37.25,37.25h123.95
	l88.63-23.33c13.27-3.43,21.19-17.13,17.77-30.4L276.95,59.71z"/>
<linearGradient id="SVGID_00000117640394297900502320000000639767805333401769_" gradientUnits="userSpaceOnUse" x1="-745.2026" y1="464.7056" x2="-670.7669" y2="390.2694" gradientTransform="matrix(5 0 0 -5 3764 2344)">
	<stop  offset="0" style="stop-color:#28AACC"/>
	<stop  offset="1" style="stop-color:#229DC6"/>
</linearGradient>
<path style="fill:url(#SVGID_00000117640394297900502320000000639767805333401769_);" d="M368.15,425.13H132.24
	c-13.7,0-24.83-11.13-24.83-24.83V65.06c0-13.7,11.13-24.83,24.83-24.83h235.91c13.7,0,24.83,11.13,24.83,24.83V400.3
	C392.98,414,381.85,425.13,368.15,425.13z"/>
<path class="st1" d="M368.15,40.23H216.37c-1.28,2.78-2.57,5.78-3.43,8.78l-86.49,323.68c-5.35,19.91,2.35,40.46,17.98,52.23h223.92
	c13.7,0,24.83-11.13,24.83-24.83V65.06C392.98,51.36,381.85,40.23,368.15,40.23z"/>
<path class="st2" d="M246.34,40.23c-21.62,0-22.69,17.55-25.9,28.69l-79.21,296.49c-0.86,3.64-3.85,17.77-3.21,21.19
	c-0.64,12.84,6.64,25.05,18.2,30.83l61.87,7.71h150.07c13.06,0,23.55-10.06,24.62-22.69c0.21-0.64,0.21-3.64,0.21-4.5V85.4
	c0-6.85-5.57-29.54-12.42-29.54L246.34,40.23z"/>
<linearGradient id="SVGID_00000163771366378252166390000016609699470071633333_" gradientUnits="userSpaceOnUse" x1="-711.5468" y1="523.4131" x2="-637.5153" y2="449.3817" gradientTransform="matrix(4.83 1.2927 1.2927 -4.83 2941.6104 3442.4309)">
	<stop  offset="0" style="stop-color:#F0F0F0"/>
	<stop  offset="1" style="stop-color:#BBC1C3"/>
</linearGradient>
<path style="fill:url(#SVGID_00000163771366378252166390000016609699470071633333_);" d="M394.48,468.16l-226.49-60.58
	c-13.27-3.43-20.98-17.13-17.55-30.18l86.27-321.97c3.43-13.27,17.13-20.98,30.18-17.55L493.6,98.46
	c13.27,3.43,20.98,17.13,17.55,30.18l-86.27,321.97C421.24,463.88,407.75,471.8,394.48,468.16z"/>
<path d="M319.77,271c-13.06,47.95-46.67,77.28-46.67,77.28s27.19-5.57,47.95,13.06C321.05,361.34,306.71,318.74,319.77,271z"/>
<path d="M349.1,163.11c-37.03,41.53-100.19,37.25-114.74,91.2c-6.21,23.12,7.49,47.1,30.61,53.3c29.97,8.13,50.09-18.62,50.09-18.62
	s3.85,33.18,33.82,41.32c23.12,6.21,47.1-7.49,53.3-30.61C416.75,245.74,360.02,217.48,349.1,163.11z"/>
<path d="M276.31,99.31c-3.64,13.7-13.27,22.05-13.27,22.05s7.71-1.5,13.7,3.64C276.74,125,272.67,113.01,276.31,99.31z"/>
<path d="M284.66,68.49c-10.49,11.77-28.69,10.7-32.75,26.12c-1.71,6.64,2.14,13.49,8.78,15.2c8.56,2.35,14.34-5.35,14.34-5.35
	s1.07,9.42,9.63,11.77c6.64,1.71,13.49-2.14,15.2-8.78C303.93,92.03,287.87,83.9,284.66,68.49z"/>
<path d="M384.63,411.65c-3.64,13.7-13.27,22.05-13.27,22.05s7.71-1.5,13.7,3.64C384.85,437.34,380.78,425.35,384.63,411.65z"/>
<path d="M392.98,380.82c-10.49,11.77-28.69,10.7-32.75,26.12c-1.71,6.64,2.14,13.49,8.78,15.2c8.56,2.35,14.34-5.35,14.34-5.35
	s1.07,9.42,9.63,11.77c6.64,1.71,13.49-2.14,15.2-8.78C412.25,404.37,395.98,396.23,392.98,380.82z"/>
</svg>
