<?xml version="1.0" encoding="utf-8"?>
<!-- Generator: Adobe Illustrator 27.0.1, SVG Export Plug-In . SVG Version: 6.00 Build 0)  -->
<svg version="1.1" id="Слой_1" xmlns="http://www.w3.org/2000/svg" xmlns:xlink="http://www.w3.org/1999/xlink" x="0px" y="0px"
	 viewBox="0 0 512 512" style="enable-background:new 0 0 512 512;" xml:space="preserve">
<style type="text/css">
	.st0{fill:#466089;}
	.st1{fill:#6D83B2;}
	.st2{fill:#D3D3D3;}
	.st3{fill:#82CEE2;}
</style>
<g>
	<g>
		<path class="st0" d="M315.62,49.22h194.6v414.05h-194.6V49.22z"/>
	</g>
	<g>
		<path class="st1" d="M340.47,100.98h144.92v20.7H340.47V100.98z"/>
	</g>
	<g>
		<path class="st2" d="M404.64,287.3h16.56v31.05h-16.56V287.3z"/>
	</g>
	<g>
		<path class="st2" d="M404.64,336.99h16.56v82.81h-16.56V336.99z"/>
	</g>
	<g>
		<path class="st1" d="M340.47,156.88h144.92v20.7H340.47V156.88z"/>
	</g>
	<g>
		<g>
			<path class="st3" d="M0.95,361.83V103.05c0-11.43,9.27-20.7,20.7-20.7h351.94c11.43,0,20.7,9.27,20.7,20.7v258.78
				c0,11.43-9.27,20.7-20.7,20.7H21.65C10.21,382.53,0.95,373.26,0.95,361.83z"/>
		</g>
		<g>
			<path class="st1" d="M0.95,361.83v-28.98h393.35v28.98c0,11.43-9.27,20.7-20.7,20.7H21.65C10.21,382.53,0.95,373.26,0.95,361.83z
				"/>
		</g>
		<g>
			<path class="st0" d="M145.86,382.53h103.51v51.76H145.86V382.53z"/>
		</g>
		<g>
			<path class="st1" d="M104.46,434.29h186.32v28.98H104.46V434.29z"/>
		</g>
	</g>
</g>
</svg>
