<?xml version="1.0" encoding="utf-8"?>
<!-- Generator: Adobe Illustrator 27.0.1, SVG Export Plug-In . SVG Version: 6.00 Build 0)  -->
<svg version="1.1" id="Слой_1" xmlns="http://www.w3.org/2000/svg" xmlns:xlink="http://www.w3.org/1999/xlink" x="0px" y="0px"
	 viewBox="0 0 512 512" style="enable-background:new 0 0 512 512;" xml:space="preserve">
<style type="text/css">
	.st0{fill:url(#SVGID_1_);}
	.st1{opacity:0.05;enable-background:new    ;}
	.st2{opacity:0.07;enable-background:new    ;}
	.st3{fill:url(#SVGID_00000075881473995137305420000008423235267474279580_);}
</style>
<linearGradient id="SVGID_1_" gradientUnits="userSpaceOnUse" x1="4.0061" y1="507.4381" x2="83.7114" y2="427.7329" gradientTransform="matrix(5 0 0 -5 -4 2566)">
	<stop  offset="0" style="stop-color:#FBD112"/>
	<stop  offset="1" style="stop-color:#E3600F"/>
</linearGradient>
<path class="st0" d="M243.22,13.21C109.14,13.21,0.43,121.91,0.43,256s108.71,242.79,242.79,242.79S486.01,390.09,486.01,256
	S377.31,13.21,243.22,13.21z"/>
<path class="st1" d="M434.87,262.2c-30.71-62.39-146.88-57.24-170.8,27.31c-91.46,3.19-99.28,156.28-8.08,154.71
	c10.95,0,83.8,0,140.5,0c50.13-40.88,83.38-101.4,88.52-169.81C475.77,265.92,451.84,258.8,434.87,262.2z"/>
<path class="st2" d="M433.94,264.61c-33.15-62.12-145.39-53.22-167.08,26.59c-85.23,2.81-89.6,140.65-4.49,141.38
	c11.37,0.1,96.16,0,145.74,0c42.96-38.95,71.45-93.72,76.66-155.13C473.96,268.11,451.47,261.43,433.94,264.61z"/>
<path class="st2" d="M433.01,267.03c-35.6-61.86-143.93-49.22-163.35,25.88c-79.01,2.43-79.92,127.38-0.88,128.07
	c11.79,0.1,108.5,0,150.98,0c35.81-37.02,59.51-86.04,64.8-140.44C472.16,270.32,451.09,264.06,433.01,267.03z"/>
<linearGradient id="SVGID_00000056417078035631519770000012304023579276868503_" gradientUnits="userSpaceOnUse" x1="63.176" y1="467.9599" x2="84.3041" y2="420.7353" gradientTransform="matrix(5 0 0 -5 -4 2566)">
	<stop  offset="0" style="stop-color:#FCFCFC"/>
	<stop  offset="1" style="stop-color:#C3C9CB"/>
</linearGradient>
<path style="fill:url(#SVGID_00000056417078035631519770000012304023579276868503_);" d="M441.29,268.78
	c-3.13,0-6.18,0.28-9.21,0.68c-16.11-23.55-43.17-39.01-73.85-39.01c-40.61,0-74.86,27.09-85.77,64.16
	c-30.46,1.44-54.79,26.4-54.79,57.24c0,31.75,25.75,57.5,57.5,57.5c13.86,0,151.75,0,166.12,0c38.82,0,70.28-31.46,70.28-70.28
	S480.11,268.78,441.29,268.78z"/>
</svg>
