<?xml version="1.0" encoding="utf-8"?>
<!-- Generator: Adobe Illustrator 27.0.1, SVG Export Plug-In . SVG Version: 6.00 Build 0)  -->
<svg version="1.1" id="Слой_1" xmlns="http://www.w3.org/2000/svg" xmlns:xlink="http://www.w3.org/1999/xlink" x="0px" y="0px"
	 viewBox="0 0 512 512" style="enable-background:new 0 0 512 512;" xml:space="preserve">
<style type="text/css">
	.st0{fill:#1E5085;}
	.st1{fill:#1C75B3;}
	.st2{fill:#1F99C4;}
	.st3{fill:#2BACCD;}
	.st4{fill:#56BFD8;}
	.st5{fill:#1863A4;}
</style>
<path class="st0" d="M405.3,448.85H106.7v37.33c0,13.75,11.14,24.88,24.88,24.88h248.83c13.75,0,24.88-11.14,24.88-24.88V448.85z"/>
<rect x="106.7" y="361.75" class="st1" width="298.6" height="87.09"/>
<rect x="106.7" y="237.34" class="st2" width="298.6" height="124.42"/>
<rect x="106.7" y="63.15" class="st3" width="298.6" height="174.18"/>
<path class="st4" d="M405.3,63.15H106.7V25.83c0-13.75,11.14-24.88,24.88-24.88h248.83c13.75,0,24.88,11.14,24.88,24.88V63.15z"/>
<circle class="st5" cx="206.23" cy="32.05" r="9.33"/>
<path class="st5" d="M299.55,22.72c-2.41,0-59.79,0-62.21,0c-5.15,0-9.33,4.18-9.33,9.33c0,5.15,4.18,9.33,9.33,9.33
	c2.41,0,59.79,0,62.21,0c5.15,0,9.33-4.18,9.33-9.33C308.88,26.9,304.7,22.72,299.55,22.72z"/>
</svg>
